<?xml version="1.0" encoding="UTF-8" standalone="no"?>
<!DOCTYPE svg PUBLIC "-//W3C//DTD SVG 1.1//EN" "http://www.w3.org/Graphics/SVG/1.1/DTD/svg11.dtd">
<svg width="100%" height="100%" viewBox="0 0 24 24" version="1.1" xmlns="http://www.w3.org/2000/svg" xmlns:xlink="http://www.w3.org/1999/xlink" xml:space="preserve" xmlns:serif="http://www.serif.com/" style="fill-rule:evenodd;clip-rule:evenodd;stroke-linejoin:round;stroke-miterlimit:2;">
    <rect x="0" y="0" width="24" height="24" style="fill:none;fill-rule:nonzero;"/>
    <path d="M20,4L4,4C2.89,4 2.01,4.89 2.01,6L2,18C2,19.11 2.89,20 4,20L20,20C21.11,20 22,19.11 22,18L22,6C22,4.89 21.11,4 20,4ZM20,18L4,18L4,12L20,12L20,18ZM20,8L4,8L4,6L20,6L20,8Z" style="fill:white;fill-rule:nonzero;"/>
</svg>
