<?xml version="1.0" encoding="UTF-8" standalone="no"?>
<!DOCTYPE svg PUBLIC "-//W3C//DTD SVG 1.1//EN" "http://www.w3.org/Graphics/SVG/1.1/DTD/svg11.dtd">
<svg width="100%" height="100%" viewBox="0 0 24 24" version="1.1" xmlns="http://www.w3.org/2000/svg" xmlns:xlink="http://www.w3.org/1999/xlink" xml:space="preserve" xmlns:serif="http://www.serif.com/" style="fill-rule:evenodd;clip-rule:evenodd;stroke-linejoin:round;stroke-miterlimit:2;">
    <rect x="0" y="0" width="24" height="24" style="fill:none;fill-rule:nonzero;"/>
    <g>
        <path d="M19.5,3.5L18,2L16.5,3.5L15,2L13.5,3.5L12,2L10.5,3.5L9,2L7.5,3.5L6,2L6,16L3,16L3,19C3,20.66 4.34,22 6,22L18,22C19.66,22 21,20.66 21,19L21,2L19.5,3.5ZM15,20L6,20C5.45,20 5,19.55 5,19L5,18L15,18L15,20ZM19,19C19,19.55 18.55,20 18,20C17.45,20 17,19.55 17,19L17,16L8,16L8,5L19,5L19,19Z" style="fill:white;fill-rule:nonzero;"/>
        <rect x="9" y="7" width="6" height="2" style="fill:white;"/>
        <rect x="16" y="7" width="2" height="2" style="fill:white;"/>
        <rect x="9" y="10" width="6" height="2" style="fill:white;"/>
        <rect x="16" y="10" width="2" height="2" style="fill:white;"/>
    </g>
</svg>
